<svg width="53" height="52" viewBox="0 0 53 52" fill="none" xmlns="http://www.w3.org/2000/svg">
<path d="M40.5 17.5C40.5 20.5 38.9 23.1 36.5 24.6L38.9 31.1L34.4 32.8L32 26.3C31.6 26.4 31.1 26.4 30.7 26.4C29.9 26.4 29.1 26.3 28.4 26.1L21.9 43.6C21.1 45.8 18.6 46.9 16.5 46.1C14.3 45.3 13.2 42.8 14 40.6L20.5 23.1C18.9 21.5 17.9 19.3 17.9 17C17.9 12.3 21.7 8.5 26.4 8.5C26.9 8.5 27.4 8.5 27.9 8.6L24.4 12.1C23.2 13.3 23.2 15.2 24.4 16.4C25.6 17.6 27.5 17.6 28.7 16.4L34.7 10.4C38.1 11.6 40.5 14.8 40.5 17.5Z" fill="#a1a1aa"/>
</svg>
